<?xml version="1.0" encoding="utf-8"?>


<!-- The icon can be used freely in both personal and commercial projects with no attribution required, but always appreciated.
You may NOT sub-license, resell, rent, redistribute or otherwise transfer the icon without express written permission from iconmonstr.com -->


<!DOCTYPE svg PUBLIC "-//W3C//DTD SVG 1.1//EN" "http://www.w3.org/Graphics/SVG/1.1/DTD/svg11.dtd">

<svg version="1.1" xmlns="http://www.w3.org/2000/svg" xmlns:xlink="http://www.w3.org/1999/xlink" x="0px" y="0px"

	 width="512px" height="512px" viewBox="0 0 512 512" enable-background="new 0 0 512 512" xml:space="preserve">

<path id="info-2-icon" d="M255.998,90.001c91.74,0,166.002,74.241,166.002,165.998c0,91.741-74.245,166-166.002,166

	c-91.74,0-165.998-74.243-165.998-166C90,164.259,164.243,90.001,255.998,90.001 M255.998,50.001

	C142.229,50.001,50,142.229,50,255.999c0,113.771,92.229,206,205.998,206c113.771,0,206.002-92.229,206.002-206

	C462,142.229,369.77,50.001,255.998,50.001L255.998,50.001z M285.822,367.567h-57.646V230.6h57.646V367.567z M257,202.268

	c-17.522,0-31.729-14.206-31.729-31.73c0-17.522,14.206-31.729,31.729-31.729c17.524,0,31.728,14.206,31.728,31.729

	C288.728,188.062,274.524,202.268,257,202.268z" fill="white" />

</svg>

